<?xml version="1.0" standalone="no"?>
<!DOCTYPE svg PUBLIC "-//W3C//DTD SVG 20010904//EN"
 "http://www.w3.org/TR/2001/REC-SVG-20010904/DTD/svg10.dtd">
<svg version="1.0" xmlns="http://www.w3.org/2000/svg"
 width="600.000000pt" height="600.000000pt" viewBox="0 0 600.000000 600.000000"
 preserveAspectRatio="xMidYMid meet">
<g transform="translate(0.000000,600.000000) scale(0.100000,-0.100000)"
fill="#000000" stroke="none">
<path d="M1622 4959 c-88 -10 -194 -46 -270 -91 -87 -52 -190 -161 -239 -254
-83 -159 -77 -41 -81 -1474 -3 -1329 -1 -1403 39 -1523 63 -189 220 -342 428
-415 l76 -27 1415 0 c1318 0 1419 1 1478 18 236 65 421 252 479 483 16 64 17
174 17 1394 1 1477 5 1372 -68 1525 -85 176 -248 305 -445 353 -59 14 -214 16
-1411 18 -740 1 -1378 -2 -1418 -7z m2513 -20 c221 -1 352 -15 347 -37 -2 -9
3 -10 15 -4 19 10 46 5 39 -7 -3 -4 7 -7 22 -7 18 1 26 -4 24 -13 -2 -8 3 -11
12 -8 9 4 28 -7 47 -26 18 -18 27 -23 19 -13 -14 18 -14 19 7 8 12 -7 30 -23
41 -37 11 -14 24 -25 29 -25 15 0 74 -71 67 -82 -4 -7 -2 -8 4 -4 16 10 15 -6
0 -24 -11 -12 -10 -12 3 -2 14 11 21 6 45 -35 16 -26 27 -52 26 -57 -2 -4 2
-14 9 -22 6 -8 9 -21 5 -29 -3 -9 -2 -13 4 -10 9 6 14 -10 13 -42 -1 -7 4 -10
9 -7 6 4 8 -1 4 -14 -4 -11 -2 -23 3 -27 15 -9 15 -2619 0 -2647 -9 -16 -8
-19 2 -13 9 6 10 2 5 -16 -4 -13 -10 -43 -13 -67 -3 -23 -10 -45 -14 -48 -5
-3 -9 -14 -9 -25 0 -10 -4 -19 -10 -19 -5 0 -10 -9 -10 -19 0 -11 -5 -23 -10
-26 -6 -4 -8 -11 -5 -16 3 -5 -2 -6 -11 -2 -12 4 -15 3 -10 -5 4 -7 2 -12 -4
-12 -6 0 -8 -4 -5 -10 11 -18 -6 -32 -23 -18 -14 12 -14 10 -3 -11 7 -13 9
-21 4 -18 -5 3 -19 -10 -32 -29 -13 -19 -28 -34 -34 -34 -5 0 -2 9 7 19 20 22
13 49 -8 32 -7 -6 -17 -7 -21 -3 -5 4 -5 1 -1 -6 6 -10 11 -10 22 -1 8 7 14 7
14 1 0 -15 -26 -33 -36 -24 -5 4 0 -3 10 -15 11 -13 16 -24 13 -24 -4 -1 -13
-2 -19 -3 -7 -1 -12 -8 -10 -16 3 -11 0 -11 -14 1 -10 8 -15 9 -11 3 4 -7 1
-16 -6 -22 -30 -24 -148 -82 -168 -82 -12 0 -19 -3 -15 -8 4 -4 -29 -14 -73
-22 -70 -13 -268 -15 -1454 -15 -1247 1 -1376 3 -1421 18 -27 9 -54 13 -59 10
-6 -3 -7 -1 -3 5 4 8 0 12 -11 12 -10 0 -31 7 -47 15 -15 8 -34 15 -40 15 -7
0 -26 13 -42 30 -16 16 -33 30 -39 30 -5 0 -3 -5 5 -11 13 -9 13 -10 0 -6 -8
2 -15 10 -15 18 -1 8 -6 13 -13 12 -7 -2 -12 2 -12 7 0 5 -6 9 -12 7 -7 -1
-12 4 -11 11 2 6 -4 12 -13 12 -10 0 -14 6 -11 14 4 10 1 13 -8 10 -7 -3 -16
3 -20 15 -3 12 -12 27 -18 34 -16 17 -57 75 -57 80 0 3 -10 26 -22 53 -12 27
-23 62 -25 77 -2 16 -8 37 -14 48 -7 14 -10 320 -10 1007 0 1561 1 1692 13
1692 6 0 8 11 4 26 -4 16 -3 23 3 19 7 -3 8 0 5 9 -4 9 -1 16 6 16 9 0 10 3 1
14 -12 14 -4 49 9 41 5 -3 12 9 15 27 4 18 12 39 18 47 6 7 16 23 22 35 7 11
16 20 21 19 6 -1 11 8 11 19 3 35 123 139 209 182 43 21 83 39 88 40 6 1 16 5
22 8 31 20 177 27 552 28 229 0 417 1 418 3 2 2 1062 0 1659 -4z"/>
<path d="M1258 4761 c-16 -18 -15 -20 1 -18 9 0 17 9 17 19 0 10 -1 18 -1 18
0 0 -8 -9 -17 -19z"/>
<path d="M1775 4310 c2 -4 -7 -18 -20 -30 l-25 -23 0 -532 c0 -409 3 -535 13
-548 10 -14 41 -17 244 -19 l231 -2 36 28 c20 15 36 34 36 42 0 8 5 12 11 9 6
-4 8 -14 5 -22 -4 -8 -1 -11 5 -8 6 4 7 14 4 24 -14 35 -14 51 2 51 11 0 13 4
6 13 -14 16 12 77 33 77 9 0 12 -5 8 -12 -4 -6 -3 -8 4 -4 21 13 22 -14 2 -51
-11 -21 -20 -45 -20 -55 0 -9 -5 -20 -11 -23 -6 -4 -8 -13 -5 -21 3 -8 1 -14
-5 -14 -6 0 -7 -4 -4 -10 3 -5 1 -10 -4 -10 -6 0 -11 -6 -11 -14 0 -8 -18 -21
-40 -30 -34 -13 -87 -16 -325 -16 -184 0 -286 4 -290 10 -4 6 -7 225 -7 487 0
509 0 513 -48 498 -11 -4 -20 -2 -20 4 0 6 -10 11 -22 10 -22 0 -22 -1 -3 -9
16 -7 12 -9 -18 -9 -22 -1 -51 -10 -68 -21 l-28 -21 1 -954 c0 -666 4 -953 11
-948 6 4 8 0 4 -10 -3 -9 -3 -16 1 -15 4 1 19 -5 34 -12 24 -11 26 -16 15 -29
-10 -14 -10 -14 4 -3 9 7 21 12 25 10 5 -1 33 4 62 11 29 7 62 11 73 8 15 -4
18 -2 10 7 -7 9 -1 11 25 11 19 -1 37 2 40 7 3 5 22 9 42 9 20 0 105 3 187 7
162 8 319 -1 403 -23 28 -7 49 -9 46 -4 -7 11 9 12 21 1 15 -13 88 -32 121
-32 23 0 26 -2 14 -11 -12 -8 -10 -9 8 -4 14 4 33 0 49 -10 14 -9 35 -18 47
-20 39 -5 76 -17 76 -25 0 -5 14 -11 30 -15 18 -4 27 -11 24 -17 -4 -7 -2 -8
4 -4 7 4 22 0 34 -8 26 -18 38 -20 38 -6 0 15 -132 78 -243 115 -301 100 -656
120 -982 54 -130 -26 -150 -27 -176 -3 -19 17 -19 39 -19 959 0 1077 -10 975
93 975 l57 0 0 -497 0 -498 302 2 c167 2 317 5 335 8 49 9 88 62 119 160 15
47 28 84 30 82 2 -2 18 -69 34 -148 46 -221 65 -259 135 -259 80 0 101 55 151
395 l39 260 12 -80 c7 -44 26 -197 43 -340 37 -313 54 -414 75 -454 27 -53
102 -54 129 -2 18 34 35 129 81 461 20 140 37 260 39 265 2 6 6 -10 10 -35 17
-105 58 -309 71 -357 18 -61 61 -103 106 -103 71 0 96 40 139 223 17 75 33
137 35 137 1 0 13 -28 25 -62 12 -34 32 -75 43 -90 41 -55 58 -58 376 -58
l291 0 0 -302 c0 -167 -4 -308 -8 -314 -18 -28 -56 -34 -206 -34 -271 0 -488
-40 -690 -128 -118 -51 -262 -140 -310 -191 l-29 -31 -53 46 c-237 201 -566
304 -980 304 -227 0 -208 -25 -214 282 l-5 243 -48 3 c-27 2 -55 -2 -63 -9
-20 -17 -21 -684 0 -676 41 16 266 29 401 24 325 -14 601 -101 781 -246 93
-76 94 -76 94 -57 0 9 -10 21 -22 26 -13 5 -19 9 -14 9 6 1 1 8 -10 17 -10 8
-13 12 -5 8 9 -4 12 -3 7 4 -4 6 -13 9 -20 6 -8 -3 -22 6 -32 19 -11 13 -26
21 -34 19 -11 -4 -9 2 5 18 l20 23 -30 -19 c-23 -14 -27 -15 -17 -3 11 14 9
16 -15 12 -22 -4 -25 -2 -13 6 12 9 10 11 -10 11 -14 0 -42 11 -62 25 -20 14
-44 25 -53 25 -8 0 -18 6 -21 13 -2 7 -14 14 -27 14 -12 1 -38 9 -57 17 -65
27 -224 58 -370 72 -131 13 -297 10 -455 -9 -19 -2 -20 5 -25 278 -4 188 -2
282 5 288 6 4 5 10 -4 16 -7 5 -11 17 -7 28 4 14 15 19 43 18 l38 0 0 -227 c0
-126 3 -228 6 -228 8 0 33 -53 30 -65 -2 -5 0 -7 4 -3 4 3 20 2 36 -2 18 -5
29 -5 29 1 0 6 4 8 9 5 5 -3 94 -8 198 -11 103 -3 195 -7 203 -10 8 -2 30 -7
48 -10 69 -12 169 -34 196 -44 15 -6 32 -9 37 -5 5 3 9 1 9 -4 0 -5 27 -17 60
-27 34 -10 57 -22 53 -28 -4 -6 0 -8 9 -4 9 3 24 -1 35 -8 10 -8 26 -15 36
-15 11 0 15 -5 11 -11 -4 -7 -1 -10 7 -7 13 4 38 -12 68 -44 17 -20 36 -24 25
-6 -4 7 -3 8 5 4 9 -6 9 -11 0 -22 -10 -12 -9 -13 4 -9 9 4 24 -3 37 -17 19
-19 22 -20 16 -4 -5 16 -4 17 8 7 8 -7 12 -20 9 -28 -5 -12 -2 -15 10 -10 11
4 22 -2 32 -16 8 -12 15 -17 15 -12 0 6 4 4 9 -4 7 -12 13 -12 24 -3 7 7 18 8
22 4 5 -4 5 -1 1 6 -4 7 -1 12 9 12 9 0 13 4 10 10 -3 6 1 7 10 4 10 -4 15 -2
13 7 -2 7 4 13 12 14 8 1 13 7 12 15 -2 8 0 12 4 8 4 -4 20 4 37 18 18 15 38
23 49 21 17 -5 17 -3 6 11 -8 10 -9 13 -1 9 6 -4 14 -3 18 3 8 13 89 50 110
50 9 0 13 5 9 11 -4 8 0 9 15 4 15 -4 19 -3 16 7 -3 8 2 14 12 15 10 1 32 7
48 14 17 7 38 11 49 10 10 -2 15 2 12 7 -3 5 4 10 17 10 12 0 56 9 97 20 125
34 266 51 434 52 87 0 162 3 167 6 5 3 9 0 9 -6 0 -6 5 -8 10 -5 6 4 8 10 5
15 -3 5 3 11 14 15 23 7 44 63 35 91 -5 16 -4 16 5 4 9 -13 11 -13 11 3 0 9
-4 17 -9 17 -5 0 -9 114 -8 265 0 155 -3 269 -9 275 -10 10 -524 19 -524 9 0
-3 -13 -4 -30 -1 -19 3 -30 10 -30 21 0 12 -2 13 -8 3 -22 -34 -102 46 -106
105 0 11 -5 19 -10 15 -5 -3 -6 2 -3 12 4 10 1 19 -8 22 -7 3 -11 12 -9 19 3
7 1 16 -5 20 -7 4 -8 0 -4 -11 4 -11 2 -15 -4 -11 -6 4 -17 -1 -25 -11 -15
-17 -24 -47 -54 -182 -9 -41 -22 -79 -28 -85 -6 -5 -11 -17 -11 -25 0 -8 -12
-20 -26 -27 -34 -16 -77 -2 -103 34 -12 16 -14 23 -5 18 11 -7 11 -4 -1 15
-19 29 -45 129 -36 137 3 3 1 13 -4 23 -5 9 -18 60 -29 113 -11 54 -26 107
-32 119 l-12 22 -18 -23 c-11 -13 -19 -40 -19 -60 -1 -20 -6 -56 -11 -81 -12
-51 -37 -234 -45 -330 -3 -36 -9 -67 -12 -70 -4 -3 -7 -21 -8 -42 -1 -20 -5
-44 -9 -55 -4 -10 -7 -28 -6 -40 1 -13 -2 -23 -8 -23 -6 0 -10 -3 -10 -7 3
-20 -2 -24 -15 -14 -11 9 -16 9 -22 0 -5 -8 -3 -9 6 -4 9 5 11 4 6 -3 -4 -7
-14 -12 -22 -12 -8 0 -12 5 -9 10 4 6 3 10 -2 9 -22 -4 -31 4 -42 39 -14 45
-18 110 -7 137 6 15 5 17 -3 5 -16 -23 -20 -10 -23 73 -2 42 -6 77 -10 77 -5
0 -8 12 -8 26 0 14 4 23 10 19 5 -3 3 6 -5 21 -8 15 -11 40 -8 54 3 15 0 31
-6 34 -6 4 -11 13 -11 19 0 7 4 6 10 -3 8 -11 8 -7 3 15 -4 17 -7 45 -7 62 1
18 -2 31 -6 28 -4 -2 -7 8 -7 23 0 33 -29 210 -38 235 -10 25 -39 17 -41 -10
-4 -45 -4 -48 -12 -36 -5 8 -8 -3 -8 -25 0 -34 -13 -117 -50 -337 -8 -49 -16
-97 -16 -105 0 -8 -5 -20 -10 -27 -5 -7 -7 -16 -4 -21 3 -5 -9 -24 -26 -43
-17 -19 -27 -28 -23 -21 6 12 3 12 -15 2 -18 -10 -21 -9 -15 1 6 9 3 11 -8 6
-17 -6 -62 44 -50 57 3 3 1 6 -6 6 -7 0 -9 4 -6 10 3 5 0 29 -6 52 -7 24 -13
50 -14 58 -2 8 -6 38 -10 65 -4 28 -11 52 -15 55 -4 3 -6 14 -4 25 5 27 -5 57
-17 50 -5 -4 -9 -1 -9 4 0 6 -7 11 -16 11 -13 0 -14 3 -4 14 6 8 17 13 25 10
7 -3 16 -1 20 5 4 7 0 8 -11 4 -13 -5 -15 -3 -9 7 5 8 4 11 -3 6 -5 -3 -13 0
-16 6 -3 7 -4 6 -3 -4 1 -9 -2 -16 -8 -15 -5 1 -9 7 -7 12 2 6 -2 4 -9 -2 -7
-7 -17 -13 -22 -13 -14 0 24 34 41 37 18 2 76 -36 68 -45 -3 -3 -1 -11 6 -19
13 -16 20 -55 22 -124 1 -37 3 -43 12 -30 10 12 11 9 8 -17 -2 -20 0 -31 6
-27 9 6 15 -35 12 -77 -1 -10 3 -18 8 -18 6 0 10 -6 10 -14 0 -19 23 -26 41
-12 17 13 49 156 59 271 4 44 10 94 13 110 4 17 9 44 12 60 5 31 21 114 29
150 9 40 26 75 36 75 6 0 9 4 6 8 -7 12 34 12 56 1 16 -9 17 -13 6 -27 -10
-12 -10 -14 0 -8 11 7 17 -10 13 -41 -1 -7 2 -13 7 -13 9 0 16 -31 26 -115 7
-55 28 -239 32 -277 4 -42 8 -71 25 -203 6 -49 11 -102 10 -117 -1 -15 3 -29
9 -33 5 -3 10 -15 10 -25 0 -10 4 -21 8 -24 5 -3 7 7 5 22 -2 15 -17 151 -33
302 -36 323 -65 511 -84 549 -29 55 -97 60 -130 9 -19 -30 -40 -133 -71 -343
-23 -157 -37 -241 -51 -305 -9 -39 -19 -10 -48 139 -31 157 -44 190 -81 219
-64 50 -119 10 -160 -115 -41 -127 -31 -123 -311 -123 l-234 0 0 529 c0 644
-18 581 168 581 145 0 354 -22 491 -52 229 -49 459 -155 554 -256 l28 -29 32
30 c45 42 157 114 230 147 222 100 445 146 768 157 171 6 177 5 198 -16 21
-21 21 -24 21 -477 0 -295 4 -462 10 -475 8 -14 21 -19 50 -19 76 0 70 -31 70
396 l0 384 58 0 c45 0 63 -5 80 -20 l22 -21 0 -938 c0 -881 -1 -939 -17 -953
-31 -26 -46 -26 -163 -2 -414 86 -937 25 -1228 -143 -76 -43 -56 -18 40 50
247 177 521 257 878 257 69 -1 171 -6 228 -13 l102 -13 0 450 0 451 -335 -3
c-398 -3 -380 -7 -420 99 -42 110 -105 138 -170 77 -31 -30 -38 -47 -69 -171
-33 -134 -41 -156 -51 -145 -3 2 -24 104 -48 225 -26 128 -52 235 -63 254 -24
41 -66 57 -101 38 -49 -26 -60 -66 -113 -429 -31 -214 -38 -310 -19 -277 6 10
11 40 12 66 1 27 5 47 10 44 7 -4 12 58 8 107 -1 20 0 22 9 10 9 -12 10 -10 5
8 -4 13 -2 44 4 70 5 26 12 70 15 97 3 28 8 79 12 115 4 36 10 70 14 75 4 6
11 21 15 35 4 14 15 31 24 38 12 10 12 12 1 6 -10 -5 -12 -4 -5 4 6 5 19 12
30 14 24 5 79 -47 71 -68 -3 -8 -1 -14 3 -14 5 0 7 -10 4 -22 -4 -19 -3 -20 7
-8 9 12 10 8 5 -17 -4 -20 -3 -33 3 -33 6 0 9 -16 8 -35 -2 -20 1 -38 5 -41 5
-3 9 -16 9 -29 0 -13 4 -26 9 -29 5 -4 8 -26 6 -51 -1 -25 1 -42 6 -39 5 3 9
-9 9 -26 0 -35 22 -94 40 -105 20 -12 51 29 57 74 4 27 9 38 14 30 5 -8 8 3 7
26 0 22 7 60 15 84 9 24 13 50 10 59 -5 11 -3 13 7 7 10 -6 12 -4 7 8 -4 11
-2 14 9 10 8 -3 14 -2 13 3 -3 20 2 34 12 34 5 0 8 -4 5 -8 -2 -4 5 -9 17 -9
15 -2 18 0 8 6 -9 6 -6 10 13 13 14 3 23 2 21 -2 -3 -5 2 -10 10 -14 17 -6 21
-36 5 -36 -16 0 -12 -17 6 -24 8 -3 12 -2 9 4 -3 5 -1 18 5 27 11 17 11 17 6
1 -3 -10 -1 -18 5 -18 6 0 9 -7 5 -15 -3 -8 -1 -15 5 -15 5 0 9 -6 7 -12 -1
-7 5 -26 15 -43 9 -16 16 -26 17 -22 0 5 14 -1 30 -13 30 -21 40 -22 349 -23
176 -1 317 1 314 6 -2 4 0 7 6 7 5 0 12 -4 15 -9 5 -7 8 -774 4 -833 -1 -12
-8 -16 -22 -13 -104 24 -430 23 -571 0 -16 -3 -46 -7 -65 -9 -19 -3 -49 -9
-67 -14 -17 -6 -34 -8 -37 -4 -3 3 -6 0 -6 -7 0 -8 -7 -10 -21 -6 -15 5 -19 4
-15 -4 4 -6 0 -11 -11 -11 -28 0 -134 -36 -127 -42 3 -4 -3 -4 -15 -1 -14 3
-23 0 -27 -11 -3 -9 -11 -16 -18 -16 -6 0 -28 -11 -48 -25 -40 -27 -53 -31
-43 -14 4 6 -2 5 -14 -3 -12 -7 -21 -16 -21 -19 0 -3 -19 -19 -42 -35 -23 -16
-55 -42 -71 -59 -16 -16 -26 -25 -23 -19 10 19 -22 24 -36 6 -12 -15 -11 -16
5 -3 16 13 18 12 13 -12 -2 -15 -8 -32 -12 -39 -4 -7 -4 -10 1 -6 4 4 14 3 22
-3 10 -9 13 -8 13 0 0 7 5 9 12 5 6 -4 8 -3 4 4 -3 6 6 13 24 17 16 4 30 10
30 15 0 5 9 7 20 5 13 -3 18 0 14 7 -5 7 -2 9 9 5 9 -3 17 -3 19 1 4 10 96 52
113 52 9 0 23 4 33 9 18 10 123 34 147 34 8 0 15 5 15 10 0 5 12 6 26 3 14 -4
23 -3 21 1 -3 5 2 9 11 9 25 2 143 15 204 23 99 13 322 2 483 -23 17 -3 44 -7
60 -10 17 -2 42 -9 56 -14 15 -6 37 -8 50 -5 20 4 21 3 9 -7 -16 -12 -14 -12
40 1 8 2 14 -2 12 -9 -1 -8 2 -11 7 -8 5 4 8 15 6 27 -3 13 1 19 12 17 11 -2
16 7 19 32 7 66 11 1745 5 1802 -4 31 -4 55 1 52 4 -3 8 2 8 10 0 9 -5 16 -10
16 -7 0 -6 8 1 23 11 19 10 20 -3 9 -13 -10 -17 -10 -21 2 -3 8 -22 18 -41 22
-20 3 -33 10 -30 15 3 5 0 9 -5 9 -6 0 -11 -4 -11 -10 0 -5 -9 -10 -21 -10
-11 0 -18 4 -15 9 4 5 -7 4 -24 -2 l-30 -11 3 -381 2 -381 -25 -2 c-14 -2 -34
-4 -44 -5 -19 -2 -20 9 -18 452 1 307 -2 461 -10 475 -5 12 -20 29 -32 39 -11
10 -14 15 -6 11 8 -4 12 -3 7 1 -11 12 -47 14 -40 2 4 -6 1 -7 -7 -2 -16 10
-270 13 -270 3 0 -4 -29 -7 -65 -7 -35 1 -79 -4 -97 -10 -18 -6 -40 -10 -48
-9 -49 4 -91 -3 -84 -14 5 -7 2 -9 -8 -5 -9 3 -43 -3 -77 -13 -33 -10 -62 -15
-65 -12 -3 2 -12 0 -19 -6 -7 -7 -22 -13 -33 -15 -10 -1 -24 -6 -31 -10 -6 -4
-19 -4 -30 -1 -15 5 -15 4 -3 -5 13 -9 13 -11 -2 -11 -10 0 -43 -11 -74 -25
-31 -14 -61 -22 -67 -18 -5 3 -7 1 -3 -5 8 -14 -28 -25 -56 -17 -20 5 -21 5
-5 -5 20 -13 14 -32 -8 -23 -8 3 -15 1 -15 -4 0 -4 -9 -14 -21 -21 -17 -11
-24 -11 -37 0 -15 12 -16 11 -3 -4 12 -16 9 -22 -11 -19 -5 0 -7 -3 -5 -7 1
-5 -14 -22 -33 -37 -19 -16 -32 -25 -28 -20 5 4 -1 14 -12 22 -10 7 -18 19
-16 26 1 6 1 9 -1 4 -3 -4 -23 9 -46 28 -23 20 -46 34 -52 32 -12 -5 -37 18
-28 26 3 3 -4 3 -16 0 -12 -3 -21 -1 -21 6 0 6 -6 11 -14 11 -21 0 -67 26 -59
34 4 4 -1 4 -11 0 -15 -6 -17 -4 -11 6 5 9 4 11 -4 6 -6 -4 -25 0 -42 8 -17 9
-46 18 -65 22 -19 3 -34 9 -34 13 0 3 -10 7 -22 7 -13 1 -56 11 -97 23 -41 12
-80 20 -88 17 -7 -3 -13 -2 -13 3 0 5 -18 7 -40 5 -27 -2 -39 0 -34 7 3 6 0 9
-7 8 -8 -2 -54 1 -104 5 -119 11 -375 15 -370 6z"/>
<path d="M2780 3700 c8 -5 20 -10 25 -10 6 0 3 5 -5 10 -8 5 -19 10 -25 10 -5
0 -3 -5 5 -10z"/>
<path d="M3101 3464 c0 -11 3 -14 6 -6 3 7 2 16 -1 19 -3 4 -6 -2 -5 -13z"/>
<path d="M3070 3430 c0 -5 5 -10 10 -10 6 0 10 5 10 10 0 6 -4 10 -10 10 -5 0
-10 -4 -10 -10z"/>
<path d="M3215 3279 c-4 -6 -5 -12 -2 -15 2 -3 7 2 10 11 7 17 1 20 -8 4z"/>
<path d="M3061 3264 c0 -11 3 -14 6 -6 3 7 2 16 -1 19 -3 4 -6 -2 -5 -13z"/>
<path d="M2237 3155 c-4 -8 -3 -16 1 -19 4 -3 9 4 9 15 2 23 -3 25 -10 4z"/>
<path d="M1712 3140 c0 -14 2 -19 5 -12 2 6 2 18 0 25 -3 6 -5 1 -5 -13z"/>
<path d="M2275 3150 c-3 -5 -2 -10 4 -10 5 0 13 5 16 10 3 6 2 10 -4 10 -5 0
-13 -4 -16 -10z"/>
<path d="M3610 3156 c0 -2 7 -7 16 -10 8 -3 12 -2 9 4 -6 10 -25 14 -25 6z"/>
<path d="M3070 2100 c-9 -6 -10 -10 -3 -10 6 0 15 5 18 10 8 12 4 12 -15 0z"/>
<path d="M4536 2101 c-4 -5 -2 -12 3 -15 5 -4 12 -2 15 3 4 5 2 12 -3 15 -5 4
-12 2 -15 -3z"/>
<path d="M3086 2062 c-2 -4 -1 -14 3 -20 6 -10 11 -9 21 3 11 13 10 14 -5 9
-13 -5 -16 -4 -11 4 4 7 5 12 2 12 -3 0 -7 -4 -10 -8z"/>
<path d="M1216 1432 c-2 -4 4 -8 14 -8 10 0 16 4 14 8 -3 4 -9 8 -14 8 -5 0
-11 -4 -14 -8z"/>
<path d="M4646 1352 c-3 -5 1 -9 9 -9 8 0 12 4 9 9 -3 4 -7 8 -9 8 -2 0 -6 -4
-9 -8z"/>
<path d="M4646 1318 c3 -5 10 -6 15 -3 13 9 11 12 -6 12 -8 0 -12 -4 -9 -9z"/>
<path d="M1046 4632 c-3 -5 1 -9 9 -9 8 0 12 4 9 9 -3 4 -7 8 -9 8 -2 0 -6 -4
-9 -8z"/>
<path d="M1137 1385 c-4 -8 -3 -16 1 -19 4 -3 9 4 9 15 2 23 -3 25 -10 4z"/>
<path d="M1205 1301 c-3 -5 -2 -12 3 -15 5 -3 9 1 9 9 0 17 -3 19 -12 6z"/>
</g>
</svg>
